<svg xmlns="http://www.w3.org/2000/svg" viewBox="0 0 50 50" width="100%" height="100%"><g data-name="Icon Line" fill="#000000" class="color000 svgShape"><path fill="#3da9fc" d="M50.83 15L37.67 27.07 50.83 38.84A2 2 0 0051 39V14.85zM3.16 15L16.32 27.07 3.16 38.84A2 2 0 013 39V14.85C3.05 14.91 3.11 15 3.16 15zM49.65 40.2L36.31 28.31l-3 2.69A9.81 9.81 0 0127 33.42 9.82 9.82 0 0120.78 31l-3-2.69L4.41 40.2a7.26 7.26 0 00-1.36 1.35H51A7.44 7.44 0 0049.65 40.2z" class="color0d0d0d svgShape"></path><path fill="#3da9fc" d="M3.07,12.45a6.69,6.69,0,0,0,1.27,1.33L17.75,25.67l2.71,2.41,2.26,1.85A6.37,6.37,0,0,0,27,31.46h.15a6.42,6.42,0,0,0,4.24-1.53l2.26-1.85,2.7-2.41L49.71,13.78A6.4,6.4,0,0,0,51,12.45Z" class="color0d0d0d svgShape"></path></g></svg>