<svg xmlns="http://www.w3.org/2000/svg" height="100%" stroke-miterlimit="10" style="fill-rule:nonzero;clip-rule:evenodd;stroke-linecap:round;stroke-linejoin:round;" version="1.1" viewBox="0 0 3000 3000" width="100%"> <defs fill="#7562e0"> <linearGradient gradientTransform="matrix(1 0 0 1 0 0)" gradientUnits="userSpaceOnUse" id="LinearGradient" x1="194.188" x2="2805.81" y1="1500" y2="1500" fill="#7562e0"> <stop offset="0" stop-color="#7e7e7e" fill="#7562e0"/> <stop offset="0.555825" stop-color="#c8c8c8" fill="#7562e0"/> <stop offset="1" stop-color="#7e7e7e" fill="#7562e0"/> </linearGradient> </defs> <g id="Layer-3"/> <g id="Layer-1"> <path d="M474 194.188C319.461 194.187 194.188 319.461 194.188 474L194.188 2526C194.187 2680.54 319.461 2805.81 474 2805.81L2526 2805.81C2680.54 2805.81 2805.81 2680.54 2805.81 2526L2805.81 474C2805.81 319.461 2680.54 194.188 2526 194.188L474 194.188ZM1500 599.844C1997.15 599.844 2400.19 1002.85 2400.19 1500C2400.19 1997.15 1997.15 2400.16 1500 2400.16C1002.85 2400.16 599.844 1997.15 599.844 1500C599.844 1002.85 1002.85 599.844 1500 599.844ZM1868.06 1141.72C1834.31 1142.28 1782.19 1160.41 1532.28 1264.38C1444.74 1300.83 1269.68 1376.24 1007.28 1490.56C964.748 1507.44 942.338 1524.08 940.312 1540.28C936.937 1567.62 971.272 1578.42 1017.97 1593.16L1037.66 1599.34C1083.57 1614.31 1145.43 1631.76 1177.5 1632.44C1206.76 1633.11 1239.29 1621.19 1275.19 1596.44C1520.37 1430.92 1646.97 1347.3 1654.84 1345.5C1660.47 1344.15 1668.32 1342.59 1673.5 1347.31C1678.79 1351.93 1678.22 1360.82 1677.66 1363.19C1674.28 1377.7 1539.62 1502.81 1469.97 1567.62C1448.25 1587.88 1432.84 1602.17 1429.69 1605.44C1422.75 1612.53 1415.7 1619.51 1408.53 1626.38C1365.77 1667.56 1333.82 1698.37 1410.22 1748.78C1447.01 1773.09 1476.48 1793 1505.84 1813.03C1537.8 1834.86 1569.75 1856.58 1611.16 1883.81C1621.62 1890.56 1631.77 1897.87 1641.56 1904.84C1678.81 1931.4 1712.45 1955.26 1753.75 1951.44C1777.83 1949.19 1802.68 1926.67 1815.28 1859.16C1845.1 1699.71 1903.72 1354.4 1917.22 1212.06C1918.04 1200.23 1917.58 1188.35 1915.78 1176.62C1914.72 1167.16 1910.13 1158.43 1902.94 1152.19C1892.7 1145.12 1880.5 1141.45 1868.06 1141.72Z" fill="#3da9fc" fill-rule="nonzero" opacity="1" stroke="none"/> </g> </svg>